<?xml version='1.0' encoding='utf-8'?>
<svg xmlns="http://www.w3.org/2000/svg" width="4000" height="2250" viewBox="0 0 1058.3333 595.31252" version="1.1" id="svg8"> <defs id="defs2"/> <metadata id="metadata5"> </metadata> <g id="layer1" transform="translate(0,298.31252)"> <g id="g917"> <rect y="-299.25748" x="-1.3263976e-06" height="343.95502" width="1059.8264" id="rect880" style="fill:#f2f2f2;fill-opacity:1;stroke:none;stroke-width:1.7405473;stroke-linecap:round;stroke-linejoin:round;stroke-miterlimit:4;stroke-dasharray:none;stroke-dashoffset:0;stroke-opacity:1;paint-order:fill markers stroke"/> <rect y="44.69754" x="0.13363343" height="252.85809" width="1059.6927" id="rect882" style="fill:#b3b3b3;fill-opacity:1;stroke:none;stroke-width:1.47795916;stroke-linecap:round;stroke-linejoin:round;stroke-miterlimit:4;stroke-dasharray:none;stroke-dashoffset:0;stroke-opacity:1;paint-order:fill markers stroke"/> <path id="path892" d="m 212.6116,-299.25748 3.40179,343.95502 837.34191,252.68042 -386.89156,0 -484.09023,-252.68042 -2.07887,-343.95502 z" style="fill:#d40000;stroke:none;stroke-width:0.26458332px;stroke-linecap:butt;stroke-linejoin:miter;stroke-opacity:1"/> <path id="path898" d="M 173.99246,-299.25748 177.6006,44.697542 576.03571,297.37796 H 365.3844 L 159.16965,44.69754 159.159,-299.25748 Z" style="fill:#800000;stroke:none;stroke-width:0.26458332px;stroke-linecap:butt;stroke-linejoin:miter;stroke-opacity:1"/> <path id="path902" d="m 126.68576,-299.25748 h 24.6937 L 153.26934,44.697542 295.44767,297.37796 0.13363343,297.55563 -1.1061313e-8,206.70114 123.97619,44.697542 Z" style="fill:#2b0000;stroke:none;stroke-width:0.26458332px;stroke-linecap:butt;stroke-linejoin:miter;stroke-opacity:1"/> <path id="path904" d="m 107.44235,-299.25748 h 10.67521 L 118.02306,44.697542 0.13363475,175.57577 -1.1061326e-8,128.03854 103.1875,44.697542 Z" style="fill:#1a1a1a;stroke:none;stroke-width:0.26458332px;stroke-linecap:butt;stroke-linejoin:miter;stroke-opacity:1"/> <path id="path906" d="m 76.194627,-299.52475 25.953433,0.26727 L 96.794328,44.430272 -1.1061326e-8,103.90066 0.40090428,69.4819 69.013078,44.430272 Z" style="fill:#000000;stroke:none;stroke-width:0.26458332px;stroke-linecap:butt;stroke-linejoin:miter;stroke-opacity:1"/> </g> </g> </svg>